<?xml version="1.0" encoding="UTF-8" standalone="no"?>
<!DOCTYPE svg PUBLIC "-//W3C//DTD SVG 1.1//EN" "http://www.w3.org/Graphics/SVG/1.1/DTD/svg11.dtd">
<svg width="100%" height="100%" viewBox="0 0 645 221" version="1.1" xmlns="http://www.w3.org/2000/svg" xmlns:xlink="http://www.w3.org/1999/xlink" xml:space="preserve" xmlns:serif="http://www.serif.com/" style="fill-rule:evenodd;clip-rule:evenodd;stroke-linejoin:round;stroke-miterlimit:2;">
    <g transform="matrix(1,0,0,1,-654.519471,-758.429997)">
        <g transform="matrix(4.256025,0,0,4.163524,-590.534836,-2842.146343)">
            <path d="M292.827,864.791L299.977,864.791L311.227,891.591L311.427,891.591L322.577,864.791L329.727,864.791L329.727,900.191L324.927,900.191L324.927,871.091L324.827,871.091L312.877,900.191L309.677,900.191L297.727,871.091L297.627,871.091L297.627,900.191L292.827,900.191L292.827,864.791ZM351.477,870.991L339.577,900.191L333.977,900.191L349.577,864.791L353.927,864.791L369.077,900.191L363.477,900.191L351.577,870.991L351.477,870.991ZM373.677,864.791L379.977,864.791L399.477,893.891L399.577,893.891L399.577,864.791L404.377,864.791L404.377,900.191L398.277,900.191L378.577,871.091L378.477,871.091L378.477,900.191L373.677,900.191L373.677,864.791ZM426.477,870.991L414.577,900.191L408.977,900.191L424.577,864.791L428.927,864.791L444.077,900.191L438.477,900.191L426.577,870.991L426.477,870.991ZM435.29,870.9L434.682,870.9L434.682,865.343L432.682,865.343L432.682,864.791L437.29,864.791L437.29,865.343L435.29,865.343L435.29,870.9ZM441.14,869.847L441.148,869.847L443.149,864.791L444.077,864.791L444.077,870.9L443.469,870.9L443.469,865.593L443.453,865.593L441.292,870.9L440.971,870.9L438.81,865.593L438.793,865.593L438.793,870.9L438.185,870.9L438.185,864.791L439.114,864.791L441.14,869.847Z" style="fill:rgb(51,51,51);"/>
        </g>
        <g transform="matrix(1.434955,0,0,1.434955,-287.699313,-419.162389)">
            <path d="M660.41,973.962L656.619,973.962L656.619,946.848L665.312,946.848C666.614,946.848 667.853,946.982 669.027,947.25C670.202,947.518 671.229,947.945 672.11,948.533C672.991,949.12 673.687,949.892 674.197,950.85C674.708,951.807 674.963,952.975 674.963,954.354C674.963,956.345 674.35,957.954 673.125,959.179C671.899,960.405 670.316,961.183 668.376,961.515L675.959,973.962L671.363,973.962L664.47,961.898L660.41,961.898L660.41,973.962ZM660.41,958.72L664.776,958.72C665.67,958.72 666.5,958.643 667.265,958.49C668.031,958.337 668.702,958.088 669.276,957.743C669.851,957.398 670.304,956.952 670.636,956.403C670.968,955.854 671.133,955.171 671.133,954.354C671.133,953.537 670.968,952.854 670.636,952.305C670.304,951.756 669.863,951.316 669.314,950.984C668.765,950.652 668.121,950.416 667.38,950.275C666.64,950.135 665.861,950.065 665.044,950.065L660.41,950.065L660.41,958.72ZM683.925,970.592L698.094,970.592L698.094,973.962L680.133,973.962L680.133,946.848L697.52,946.848L697.52,950.179L683.925,950.179L683.925,958.298L696.716,958.298L696.716,961.554L683.925,961.554L683.925,970.592ZM723.6,952.439C722.783,951.545 721.743,950.831 720.479,950.294C719.215,949.758 717.804,949.49 716.247,949.49C714.664,949.49 713.234,949.777 711.958,950.352C710.681,950.926 709.596,951.711 708.703,952.707C707.809,953.703 707.12,954.858 706.635,956.173C706.149,957.488 705.907,958.886 705.907,960.366C705.907,961.873 706.149,963.29 706.635,964.617C707.12,965.945 707.809,967.1 708.703,968.083C709.596,969.066 710.694,969.838 711.996,970.4C713.298,970.962 714.753,971.243 716.362,971.243C717.638,971.243 718.813,971.128 719.885,970.898C720.958,970.668 721.889,970.336 722.681,969.902L722.681,962.358L716.668,962.358L716.668,959.141L726.434,959.141L726.434,972.277C725.004,973.043 723.447,973.63 721.762,974.038C720.077,974.447 718.238,974.651 716.247,974.651C714.128,974.651 712.181,974.3 710.407,973.598C708.632,972.896 707.107,971.913 705.83,970.649C704.554,969.385 703.558,967.879 702.843,966.13C702.128,964.381 701.771,962.46 701.771,960.366C701.771,958.247 702.135,956.313 702.862,954.564C703.59,952.816 704.598,951.322 705.888,950.084C707.177,948.845 708.703,947.882 710.464,947.192C712.226,946.503 714.141,946.158 716.209,946.158C718.379,946.158 720.313,946.477 722.011,947.116C723.709,947.754 725.119,948.609 726.242,949.682L723.6,952.439ZM736.736,970.592L750.906,970.592L750.906,973.962L732.944,973.962L732.944,946.848L750.331,946.848L750.331,950.179L736.736,950.179L736.736,958.298L749.527,958.298L749.527,961.554L736.736,961.554L736.736,970.592ZM775.071,968.524L775.147,968.524L775.147,946.848L778.939,946.848L778.939,973.962L774.152,973.962L759.829,951.826L759.752,951.826L759.752,973.962L755.961,973.962L755.961,946.848L760.901,946.848L775.071,968.524ZM789.317,970.592L803.487,970.592L803.487,973.962L785.526,973.962L785.526,946.848L802.913,946.848L802.913,950.179L789.317,950.179L789.317,958.298L802.108,958.298L802.108,961.554L789.317,961.554L789.317,970.592ZM812.334,973.962L808.542,973.962L808.542,946.848L817.236,946.848C818.538,946.848 819.776,946.982 820.95,947.25C822.125,947.518 823.152,947.945 824.033,948.533C824.914,949.12 825.61,949.892 826.12,950.85C826.631,951.807 826.886,952.975 826.886,954.354C826.886,956.345 826.274,957.954 825.048,959.179C823.823,960.405 822.24,961.183 820.299,961.515L827.882,973.962L823.286,973.962L816.393,961.898L812.334,961.898L812.334,973.962ZM812.334,958.72L816.699,958.72C817.593,958.72 818.423,958.643 819.189,958.49C819.955,958.337 820.625,958.088 821.199,957.743C821.774,957.398 822.227,956.952 822.559,956.403C822.891,955.854 823.057,955.171 823.057,954.354C823.057,953.537 822.891,952.854 822.559,952.305C822.227,951.756 821.786,951.316 821.238,950.984C820.689,950.652 820.044,950.416 819.304,950.275C818.563,950.135 817.784,950.065 816.967,950.065L812.334,950.065L812.334,958.72ZM833.167,973.962L828.954,973.962L840.711,946.848L844.158,946.848L855.8,973.962L851.511,973.962L848.754,967.298L835.886,967.298L833.167,973.962ZM837.226,963.966L847.375,963.966L842.32,951.252L837.226,963.966ZM866.485,973.962L862.694,973.962L862.694,950.179L854,950.179L854,946.848L875.179,946.848L875.179,950.179L866.485,950.179L866.485,973.962ZM882.57,973.962L878.778,973.962L878.778,946.848L882.57,946.848L882.57,973.962ZM898.157,969.06L898.271,969.06L906.429,946.848L910.526,946.848L899.88,973.962L896.357,973.962L885.787,946.848L889.999,946.848L898.157,969.06ZM917.535,970.592L931.705,970.592L931.705,973.962L913.743,973.962L913.743,946.848L931.13,946.848L931.13,950.179L917.535,950.179L917.535,958.298L930.326,958.298L930.326,961.554L917.535,961.554L917.535,970.592ZM946.334,946.848L955.678,946.848C956.7,946.848 957.721,946.963 958.742,947.192C959.763,947.422 960.676,947.805 961.48,948.341C962.284,948.877 962.936,949.579 963.433,950.448C963.931,951.316 964.18,952.401 964.18,953.703C964.18,955.209 963.746,956.473 962.878,957.494C962.01,958.515 960.861,959.217 959.431,959.6L959.431,959.677C960.299,959.779 961.104,960.003 961.844,960.347C962.584,960.692 963.223,961.145 963.759,961.707C964.295,962.268 964.71,962.932 965.004,963.698C965.297,964.464 965.444,965.319 965.444,966.264C965.444,967.566 965.176,968.702 964.64,969.673C964.104,970.643 963.376,971.441 962.457,972.066C961.538,972.692 960.459,973.164 959.221,973.483C957.982,973.802 956.661,973.962 955.257,973.962L946.334,973.962L946.334,946.848ZM950.125,970.745L954.874,970.745C955.666,970.745 956.463,970.675 957.268,970.534C958.072,970.394 958.799,970.145 959.451,969.787C960.102,969.43 960.625,968.951 961.021,968.351C961.416,967.751 961.614,966.992 961.614,966.073C961.614,964.464 961.065,963.302 959.968,962.588C958.87,961.873 957.287,961.515 955.219,961.515L950.125,961.515L950.125,970.745ZM950.125,958.298L955.066,958.298C955.78,958.298 956.463,958.215 957.114,958.049C957.765,957.883 958.334,957.628 958.819,957.284C959.304,956.939 959.687,956.505 959.968,955.981C960.248,955.458 960.389,954.826 960.389,954.086C960.389,952.63 959.853,951.59 958.78,950.965C957.708,950.339 956.266,950.026 954.453,950.026L950.125,950.026L950.125,958.298ZM974.712,973.962L970.92,973.962L970.92,946.848L974.712,946.848L974.712,973.962ZM1008.643,960.366C1008.643,962.46 1008.279,964.381 1007.551,966.13C1006.824,967.879 1005.821,969.385 1004.545,970.649C1003.268,971.913 1001.749,972.896 999.988,973.598C998.226,974.3 996.311,974.651 994.243,974.651C992.175,974.651 990.267,974.3 988.518,973.598C986.769,972.896 985.256,971.913 983.98,970.649C982.703,969.385 981.707,967.879 980.992,966.13C980.278,964.381 979.92,962.46 979.92,960.366C979.92,958.247 980.278,956.313 980.992,954.564C981.707,952.816 982.703,951.322 983.98,950.084C985.256,948.845 986.769,947.882 988.518,947.192C990.267,946.503 992.175,946.158 994.243,946.158C996.311,946.158 998.226,946.503 999.988,947.192C1001.749,947.882 1003.268,948.845 1004.545,950.084C1005.821,951.322 1006.824,952.816 1007.551,954.564C1008.279,956.313 1008.643,958.247 1008.643,960.366ZM1004.545,960.366C1004.545,958.886 1004.302,957.488 1003.817,956.173C1003.332,954.858 1002.643,953.703 1001.749,952.707C1000.856,951.711 999.777,950.926 998.513,950.352C997.249,949.777 995.826,949.49 994.243,949.49C992.686,949.49 991.275,949.777 990.011,950.352C988.748,950.926 987.675,951.711 986.794,952.707C985.914,953.703 985.231,954.858 984.746,956.173C984.26,957.488 984.018,958.886 984.018,960.366C984.018,961.873 984.26,963.29 984.746,964.617C985.231,965.945 985.92,967.1 986.814,968.083C987.707,969.066 988.779,969.838 990.03,970.4C991.281,970.962 992.686,971.243 994.243,971.243C995.801,971.243 997.217,970.962 998.494,970.4C999.771,969.838 1000.856,969.066 1001.749,968.083C1002.643,967.1 1003.332,965.945 1003.817,964.617C1004.302,963.29 1004.545,961.873 1004.545,960.366ZM1022.161,973.962L1018.37,973.962L1018.37,950.179L1009.677,950.179L1009.677,946.848L1030.855,946.848L1030.855,950.179L1022.161,950.179L1022.161,973.962ZM1038.246,970.592L1052.416,970.592L1052.416,973.962L1034.455,973.962L1034.455,946.848L1051.841,946.848L1051.841,950.179L1038.246,950.179L1038.246,958.298L1051.037,958.298L1051.037,961.554L1038.246,961.554L1038.246,970.592ZM1080.717,969.749C1079.645,971.204 1078.253,972.385 1076.543,973.292C1074.832,974.198 1072.777,974.651 1070.377,974.651C1068.309,974.651 1066.401,974.3 1064.652,973.598C1062.903,972.896 1061.396,971.913 1060.133,970.649C1058.869,969.385 1057.88,967.879 1057.165,966.13C1056.45,964.381 1056.092,962.46 1056.092,960.366C1056.092,958.247 1056.456,956.313 1057.184,954.564C1057.911,952.816 1058.92,951.322 1060.209,950.084C1061.499,948.845 1063.024,947.882 1064.786,947.192C1066.547,946.503 1068.462,946.158 1070.53,946.158C1071.449,946.158 1072.381,946.248 1073.326,946.426C1074.271,946.605 1075.177,946.873 1076.045,947.231C1076.913,947.588 1077.704,948.028 1078.419,948.552C1079.134,949.075 1079.747,949.682 1080.258,950.371L1077.27,952.669C1076.607,951.75 1075.668,950.99 1074.456,950.39C1073.243,949.79 1071.934,949.49 1070.53,949.49C1068.947,949.49 1067.524,949.777 1066.26,950.352C1064.996,950.926 1063.918,951.711 1063.024,952.707C1062.13,953.703 1061.441,954.858 1060.956,956.173C1060.471,957.488 1060.228,958.886 1060.228,960.366C1060.228,961.898 1060.465,963.328 1060.937,964.656C1061.409,965.983 1062.086,967.139 1062.967,968.121C1063.847,969.104 1064.92,969.877 1066.184,970.438C1067.447,971 1068.858,971.281 1070.415,971.281C1071.947,971.281 1073.339,970.975 1074.59,970.362C1075.841,969.749 1076.875,968.856 1077.692,967.681L1080.717,969.749ZM1084.585,946.848L1088.377,946.848L1088.377,958.183L1102.087,958.183L1102.087,946.848L1105.916,946.848L1105.916,973.962L1102.087,973.962L1102.087,961.554L1088.377,961.554L1088.377,973.962L1084.585,973.962L1084.585,946.848Z" style="fill:rgb(180,72,60);"/>
        </g>
    </g>
</svg>
